<?xml version="1.0" encoding="UTF-8" standalone="no"?>
<!-- Generator: Adobe Illustrator 16.0.0, SVG Export Plug-In . SVG Version: 6.00 Build 0)  -->

<svg
   xmlns:dc="http://purl.org/dc/elements/1.1/"
   xmlns:cc="http://creativecommons.org/ns#"
   xmlns:rdf="http://www.w3.org/1999/02/22-rdf-syntax-ns#"
   xmlns:svg="http://www.w3.org/2000/svg"
   xmlns="http://www.w3.org/2000/svg"
   xmlns:sodipodi="http://sodipodi.sourceforge.net/DTD/sodipodi-0.dtd"
   xmlns:inkscape="http://www.inkscape.org/namespaces/inkscape"
   version="1.1"
   id="Layer_1"
   x="0px"
   y="0px"
   width="176.507px"
   height="175.262px"
   viewBox="0 0 176.507 175.262"
   enable-background="new 0 0 176.507 175.262"
   xml:space="preserve"
   inkscape:version="0.48.4 r9939"
   sodipodi:docname="SRCT_sq_white.svg"><metadata
     id="metadata47"><rdf:RDF><cc:Work
         rdf:about=""><dc:format>image/svg+xml</dc:format><dc:type
           rdf:resource="http://purl.org/dc/dcmitype/StillImage" /><dc:title></dc:title></cc:Work></rdf:RDF></metadata><defs
     id="defs45"><filter
       id="filter6462"
       style="color-interpolation-filters:sRGB;"
       inkscape:label="Drop Shadow"><feFlood
         id="feFlood6464"
         flood-opacity="0.3"
         flood-color="rgb(0,0,0)"
         result="flood" /><feComposite
         id="feComposite6466"
         in2="SourceGraphic"
         in="flood"
         operator="in"
         result="composite1" /><feGaussianBlur
         id="feGaussianBlur6468"
         in="composite"
         stdDeviation="4"
         result="blur" /><feOffset
         id="feOffset6470"
         dx="2"
         dy="2"
         result="offset" /><feComposite
         id="feComposite6472"
         in2="offset"
         in="SourceGraphic"
         operator="over"
         result="composite2" /></filter></defs><sodipodi:namedview
     pagecolor="#ffffff"
     bordercolor="#666666"
     borderopacity="1"
     objecttolerance="10"
     gridtolerance="10"
     guidetolerance="10"
     inkscape:pageopacity="0"
     inkscape:pageshadow="2"
     inkscape:window-width="2560"
     inkscape:window-height="1410"
     id="namedview43"
     showgrid="false"
     inkscape:zoom="7.143591"
     inkscape:cx="59.696436"
     inkscape:cy="87.630997"
     inkscape:window-x="0"
     inkscape:window-y="30"
     inkscape:window-maximized="1"
     inkscape:current-layer="Layer_1" /><g
     id="g6443"
     style="filter:url(#filter6462)"><path
       fill="#232A38"
       stroke="#232A38"
       stroke-width="2"
       style="fill:#ffffff;fill-opacity:1;stroke:#ffffff;stroke-opacity:1"
       id="path7"
       d="M24.741,76.15h40.872c2.16,0,4.32,0,4.32-3.313  V61.01c0-3.31-2.16-3.31-4.32-3.31H42.572c-8.64,0-17.281,0-17.281-12.774v-8.042c0-12.772,8.641-12.772,17.281-12.772h36.002  v10.408H41.851c-2.16,0-4.32,0-4.32,3.312v6.15c0,3.311,2.16,3.311,4.32,3.311h23.043c8.641,0,17.281,0,17.281,12.774v13.718  c0,12.774-8.641,12.774-17.281,12.774H25.126L24.741,76.15z"
       stroke-miterlimit="10" /><path
       fill="#232A38"
       stroke="#232A38"
       stroke-width="2"
       style="fill:#ffffff;fill-opacity:1;stroke:#ffffff;stroke-opacity:1"
       id="path9"
       d="M134.855,86.363l-19.441-25.469h-12.961v25.469  h-12.24V24.111h39.604c8.641,0,17.281,0,17.281,12.733v11.318c0,12.732-8.641,12.732-16.563,12.732l19.443,25.469H134.855z   M130.535,50.519c2.16,0,4.32,0,4.32-3.301v-9.431c0-3.301-2.16-3.301-4.32-3.301h-28.082v16.033H130.535z"
       stroke-miterlimit="10" /><path
       fill="#232A38"
       stroke="#232A38"
       stroke-width="2"
       style="fill:#ffffff;fill-opacity:1;stroke:#ffffff;stroke-opacity:1"
       id="path11"
       d="M25.291,106.205  c0-11.326,8.642-11.326,17.283-11.326h36.002v9.229H41.853c-2.16,0-4.321,0-4.321,2.939v31.043c0,2.936,2.161,2.936,4.321,2.936  h36.723v9.232H42.574c-8.641,0-17.283,0-17.283-11.328V106.205z"
       stroke-miterlimit="10" /><path
       fill="#232A38"
       stroke="#232A38"
       stroke-width="2"
       style="fill:#ffffff;fill-opacity:1;stroke:#ffffff;stroke-opacity:1"
       id="path13"
       d="M89.493,94.879h60.763v9.229h-24.304v46.15  h-12.153v-46.15H89.493V94.879z"
       stroke-miterlimit="10" /><path
       sodipodi:nodetypes="csccccssccsssc"
       style="fill:none;stroke:#ffffff;stroke-width:12.38400047000000015;stroke-miterlimit:10;stroke-dasharray:none;stroke-opacity:1;stroke-linecap:round"
       inkscape:connector-curvature="0"
       id="path17"
       d="m 13.334,100.012 0,49.324 c 0,6.752 5.16,12.395 11.232,12.395 l 1.937,0 125.531,0 0,0 c 5.89,0 11.232,-5.434 11.232,-12.395 l 0,-123.925 c 0,-6.752 -5.16,-12.495 -11.232,-12.495 l 0,0 -126.743,0 c -5.889,0 -11.957,5.533 -11.957,12.495 l 0,44.444 c 0,6.753 5.016,11.502 11.088,11.502"
       stroke-miterlimit="10" /></g></svg>