<?xml version="1.0" encoding="utf-8"?>
<!-- Generator: Adobe Illustrator 16.0.0, SVG Export Plug-In . SVG Version: 6.00 Build 0)  -->
<!DOCTYPE svg PUBLIC "-//W3C//DTD SVG 1.1//EN" "http://www.w3.org/Graphics/SVG/1.1/DTD/svg11.dtd">
<svg version="1.1" id="Layer_1" xmlns="http://www.w3.org/2000/svg" xmlns:xlink="http://www.w3.org/1999/xlink" x="0px" y="0px"
	 width="300px" height="100px" viewBox="0 0 300 100" enable-background="new 0 0 300 100" xml:space="preserve">
<path fill="#242A38" stroke="#242A38" stroke-width="2" stroke-miterlimit="10" d="M21.229,59.141h40.323c2.16,0,4.32,0,4.32-2.52
	V47.62c0-2.52-2.16-2.52-4.32-2.52H38.51c-8.641,0-17.281,0-17.281-9.721v-6.121c0-9.721,8.641-9.721,17.281-9.721h36.003v7.92
	H37.79c-2.16,0-4.32,0-4.32,2.521v4.68c0,2.52,2.16,2.52,4.32,2.52h23.042c8.641,0,17.281,0,17.281,9.721v10.441
	c0,9.721-8.641,9.721-17.281,9.721H21.229V59.141z"/>
<path fill="#242A38" stroke="#242A38" stroke-width="2" stroke-miterlimit="10" d="M132.832,67.063L113.39,47.62h-12.961v19.442
	H88.188V19.538h39.604c8.641,0,17.281,0,17.281,9.721v8.641c0,9.721-8.641,9.721-16.562,9.721l19.442,19.442H132.832z M128.511,39.7
	c2.16,0,4.32,0,4.32-2.521v-7.2c0-2.521-2.16-2.521-4.32-2.521h-28.083V39.7H128.511z"/>
<path fill="#242A38" stroke="#242A38" stroke-width="2" stroke-miterlimit="10" d="M155.147,29.259
	c0-9.721,8.642-9.721,17.282-9.721h36.003v7.92h-36.724c-2.16,0-4.32,0-4.32,2.521v26.642c0,2.52,2.16,2.52,4.32,2.52h36.724v7.922
	H172.43c-8.641,0-17.282,0-17.282-9.721V29.259z"/>
<path fill="#242A38" stroke="#242A38" stroke-width="2" stroke-miterlimit="10" d="M215.627,19.538h61.205v7.92h-24.481v39.604
	h-12.241V27.458h-24.482V19.538z"/>
<path fill="#242A38" d="M15.867,79.458h4.917c0.3,0,0.6,0,0.6-0.359v-0.6c0-0.359-0.3-0.359-0.6-0.359h-2.519
	c-1.199,0-2.398,0-2.398-1.38v-0.54c0-1.379,1.199-1.379,2.398-1.379h4.558v1.139h-4.438c-0.3,0-0.6,0-0.6,0.36v0.3
	c0,0.359,0.3,0.359,0.6,0.359h2.519c1.199,0,2.398,0,2.398,1.38v0.839c0,1.38-1.199,1.38-2.398,1.38h-5.037V79.458z"/>
<path fill="#242A38" d="M24.747,72.683h1.919v2.158h2.398v1.139h-2.398v3.119c0,0.359,0.3,0.359,0.6,0.359h1.799v1.14h-1.919
	c-1.199,0-2.398,0-2.398-1.38V72.683z"/>
<path fill="#242A38" d="M30.506,74.841h1.919v4.258c0,0.359,0.3,0.359,0.6,0.359h2.398c0.3,0,0.6,0,0.6-0.359v-4.258h1.919v4.377
	c0,1.38-1.199,1.38-2.398,1.38h-2.639c-1.199,0-2.398,0-2.398-1.38V74.841z"/>
<path fill="#242A38" d="M39.386,76.22c0-1.379,1.199-1.379,2.398-1.379h3.118v-2.158h1.919v7.915h-5.037
	c-1.199,0-2.398,0-2.398-1.38V76.22z M41.905,79.458h2.998v-3.479h-2.998c-0.3,0-0.6,0-0.6,0.36v2.759
	C41.305,79.458,41.605,79.458,41.905,79.458z"/>
<path fill="#242A38" d="M48.266,76.22c0-1.379,1.199-1.379,2.398-1.379h2.639c1.199,0,2.398,0,2.398,1.379v1.92h-5.517v0.959
	c0,0.359,0.3,0.359,0.6,0.359h4.677v1.14h-4.797c-1.199,0-2.398,0-2.398-1.38V76.22z M53.783,76.999V76.34c0-0.36-0.3-0.36-0.6-0.36
	h-2.398c-0.3,0-0.6,0-0.6,0.36v0.659H53.783z"/>
<path fill="#242A38" d="M57.146,74.841h5.037c1.199,0,2.398,0,2.398,1.379v4.378h-1.919V76.34c0-0.36-0.3-0.36-0.6-0.36h-2.998
	v4.618h-1.919V74.841z"/>
<path fill="#242A38" d="M66.026,72.683h1.919v2.158h2.398v1.139h-2.398v3.119c0,0.359,0.3,0.359,0.6,0.359h1.799v1.14h-1.919
	c-1.199,0-2.398,0-2.398-1.38V72.683z"/>
<path fill="#242A38" d="M71.786,76.999h5.037v1.439h-5.037V76.999z"/>
<path fill="#242A38" d="M78.266,76.22c0-1.379,1.199-1.379,2.398-1.379h1.919v1.139h-1.799c-0.3,0-0.6,0-0.6,0.36v4.258h-1.919
	V76.22z"/>
<path fill="#242A38" d="M84.025,74.841h1.919v4.258c0,0.359,0.3,0.359,0.6,0.359h2.398c0.3,0,0.6,0,0.6-0.359v-4.258h1.919v4.377
	c0,1.38-1.2,1.38-2.399,1.38h-2.639c-1.199,0-2.398,0-2.398-1.38V74.841z"/>
<path fill="#242A38" d="M92.905,74.841h5.037c1.199,0,2.399,0,2.399,1.379v4.378h-1.919V76.34c0-0.36-0.3-0.36-0.6-0.36h-2.998
	v4.618h-1.919V74.841z"/>
<path fill="#242A38" d="M106.585,76.22c0-1.379,1.199-1.379,2.398-1.379h4.558v1.139h-4.438c-0.3,0-0.6,0-0.6,0.36v2.759
	c0,0.359,0.3,0.359,0.6,0.359h4.438v1.14h-4.558c-1.199,0-2.398,0-2.398-1.38V76.22z"/>
<path fill="#242A38" d="M114.985,76.22c0-1.379,1.199-1.379,2.398-1.379h2.639c1.199,0,2.398,0,2.398,1.379v2.998
	c0,1.38-1.199,1.38-2.398,1.38h-2.639c-1.199,0-2.398,0-2.398-1.38V76.22z M117.503,79.458h2.398c0.3,0,0.6,0,0.6-0.359V76.34
	c0-0.36-0.3-0.36-0.6-0.36h-2.398c-0.3,0-0.6,0-0.6,0.36v2.759C116.904,79.458,117.204,79.458,117.503,79.458z"/>
<path fill="#242A38" d="M123.865,74.841h7.676c1.199,0,2.398,0,2.398,1.379v4.378h-1.919V76.34c0-0.36-0.3-0.36-0.6-0.36h-1.559
	v4.618h-1.919V76.34c0-0.36-0.3-0.36-0.6-0.36h-1.559v4.618h-1.919V74.841z"/>
<path fill="#242A38" d="M135.385,74.841h5.038c1.199,0,2.398,0,2.398,1.379v2.998c0,1.38-1.199,1.38-2.398,1.38h-3.119v2.698h-1.919
	V74.841z M140.302,79.458c0.3,0,0.6,0,0.6-0.359V76.34c0-0.36-0.3-0.36-0.6-0.36h-2.999v3.479H140.302z"/>
<path fill="#242A38" d="M144.265,74.841h1.918v4.258c0,0.359,0.301,0.359,0.6,0.359h2.398c0.301,0,0.6,0,0.6-0.359v-4.258h1.92
	v4.377c0,1.38-1.199,1.38-2.398,1.38h-2.639c-1.199,0-2.399,0-2.399-1.38V74.841z"/>
<path fill="#242A38" d="M153.145,72.683h1.92v2.158h2.398v1.139h-2.398v3.119c0,0.359,0.299,0.359,0.6,0.359h1.799v1.14h-1.92
	c-1.199,0-2.398,0-2.398-1.38V72.683z"/>
<path fill="#242A38" d="M158.904,72.683h1.92v1.139h-1.92V72.683z M158.904,74.841h1.92v5.757h-1.92V74.841z"/>
<path fill="#242A38" d="M162.266,74.841h5.037c1.199,0,2.398,0,2.398,1.379v4.378h-1.92V76.34c0-0.36-0.299-0.36-0.6-0.36h-2.998
	v4.618h-1.918V74.841z"/>
<path fill="#242A38" d="M171.145,76.22c0-1.379,1.199-1.379,2.398-1.379h5.037v7.256c0,1.199-1.199,1.199-2.398,1.199h-4.797v-1.139
	h4.678c0.299,0,0.6,0,0.6-0.301v-1.259h-3.119c-1.199,0-2.398,0-2.398-1.38V76.22z M173.664,79.458h2.998v-3.479h-2.998
	c-0.301,0-0.6,0-0.6,0.36v2.759C173.064,79.458,173.363,79.458,173.664,79.458z"/>
<path fill="#242A38" d="M184.824,76.999h2.578v-2.158h2.039v2.158h2.58v1.439h-2.58v2.159h-2.039v-2.159h-2.578V76.999z"/>
<path fill="#242A38" d="M198.264,72.683h1.92v2.158h2.398v1.139h-2.398v3.119c0,0.359,0.299,0.359,0.6,0.359h1.799v1.14h-1.92
	c-1.199,0-2.398,0-2.398-1.38V72.683z"/>
<path fill="#242A38" d="M204.023,76.22c0-1.379,1.199-1.379,2.398-1.379h2.639c1.199,0,2.398,0,2.398,1.379v1.92h-5.516v0.959
	c0,0.359,0.299,0.359,0.6,0.359h4.678v1.14h-4.799c-1.199,0-2.398,0-2.398-1.38V76.22z M209.541,76.999V76.34
	c0-0.36-0.301-0.36-0.6-0.36h-2.398c-0.301,0-0.6,0-0.6,0.36v0.659H209.541z"/>
<path fill="#242A38" d="M212.904,76.22c0-1.379,1.199-1.379,2.398-1.379h4.557v1.139h-4.438c-0.299,0-0.6,0-0.6,0.36v2.759
	c0,0.359,0.301,0.359,0.6,0.359h4.438v1.14h-4.557c-1.199,0-2.398,0-2.398-1.38V76.22z"/>
<path fill="#242A38" d="M221.305,72.683h1.918v2.158h3.119c1.199,0,2.398,0,2.398,1.379v4.378h-1.92V76.34
	c0-0.36-0.299-0.36-0.6-0.36h-2.998v4.618h-1.918V72.683z"/>
<path fill="#242A38" d="M230.184,74.841h5.037c1.199,0,2.398,0,2.398,1.379v4.378h-1.918V76.34c0-0.36-0.301-0.36-0.6-0.36h-2.998
	v4.618h-1.92V74.841z"/>
<path fill="#242A38" d="M239.064,76.22c0-1.379,1.199-1.379,2.398-1.379h2.639c1.199,0,2.398,0,2.398,1.379v2.998
	c0,1.38-1.199,1.38-2.398,1.38h-2.639c-1.199,0-2.398,0-2.398-1.38V76.22z M241.582,79.458h2.398c0.301,0,0.6,0,0.6-0.359V76.34
	c0-0.36-0.299-0.36-0.6-0.36h-2.398c-0.299,0-0.6,0-0.6,0.36v2.759C240.982,79.458,241.283,79.458,241.582,79.458z"/>
<path fill="#242A38" d="M247.943,72.683h1.92v7.915h-1.92V72.683z"/>
<path fill="#242A38" d="M260.313,76.22c0-1.379,1.199-1.379,2.398-1.379h5.037v7.256c0,1.199-1.199,1.199-2.398,1.199h-4.799v-1.139
	h4.678c0.301,0,0.6,0,0.6-0.301v-1.259h-3.117c-1.199,0-2.398,0-2.398-1.38V76.22z M262.831,79.458h2.998v-3.479h-2.998
	c-0.299,0-0.6,0-0.6,0.36v2.759C262.231,79.458,262.532,79.458,262.831,79.458z"/>
<path fill="#242A38" d="M270.751,74.841l2.039,4.078l2.039-4.078h2.039l-3.598,7.195c-0.359,0.721-0.66,1.26-1.799,1.26h-2.039
	v-1.139h1.199c0.539,0,0.6-0.121,0.779-0.48l0.359-0.719l-3.057-6.117H270.751z"/>
<path fill="none" stroke="#242A38" stroke-width="9.9" stroke-miterlimit="10" d="M12.378,91.184h266.991h-0.143
	c6.213,0,11.238-5.182,11.238-11.588V20.138c0-6.213-5.182-11.238-11.588-11.238h0.492H20.803c-6.212,0-11.238,5.182-11.238,11.588
	v31.37c0,6.213,5.183,11.238,11.588,11.238"/>
<circle fill="#242A38" cx="12.378" cy="91.184" r="4.906"/>
<path fill="#242A38" d="M251.076,76.22c0-1.379,1.199-1.379,2.398-1.379h2.639c1.199,0,2.398,0,2.398,1.379v2.998
	c0,1.38-1.199,1.38-2.398,1.38h-2.639c-1.199,0-2.398,0-2.398-1.38V76.22z M253.594,79.458h2.398c0.301,0,0.6,0,0.6-0.359V76.34
	c0-0.36-0.299-0.36-0.6-0.36h-2.398c-0.299,0-0.6,0-0.6,0.36v2.759C252.994,79.458,253.295,79.458,253.594,79.458z"/>
</svg>
