<?xml version="1.0" encoding="utf-8"?>
<!-- Generator: Adobe Illustrator 16.0.0, SVG Export Plug-In . SVG Version: 6.00 Build 0)  -->
<!DOCTYPE svg PUBLIC "-//W3C//DTD SVG 1.1//EN" "http://www.w3.org/Graphics/SVG/1.1/DTD/svg11.dtd">
<svg version="1.1" id="Layer_1" xmlns="http://www.w3.org/2000/svg" xmlns:xlink="http://www.w3.org/1999/xlink" x="0px" y="0px"
	 width="300px" height="100px" viewBox="0 0 300 100" enable-background="new 0 0 300 100" xml:space="preserve">
<path fill="#242A38" stroke="#242A38" stroke-width="2" stroke-miterlimit="10" d="M21.229,59.141h40.323c2.16,0,4.32,0,4.32-2.52
	V47.62c0-2.52-2.16-2.52-4.32-2.52H38.51c-8.641,0-17.281,0-17.281-9.721v-6.121c0-9.721,8.641-9.721,17.281-9.721h36.003v7.92
	H37.79c-2.16,0-4.32,0-4.32,2.521v4.68c0,2.52,2.16,2.52,4.32,2.52h23.042c8.641,0,17.281,0,17.281,9.721v10.441
	c0,9.721-8.641,9.721-17.281,9.721H21.229V59.141z"/>
<path fill="#242A38" stroke="#242A38" stroke-width="2" stroke-miterlimit="10" d="M132.832,67.063L113.39,47.62h-12.961v19.442
	H88.188V19.538h39.604c8.641,0,17.281,0,17.281,9.721v8.641c0,9.721-8.641,9.721-16.562,9.721l19.442,19.442H132.832z M128.511,39.7
	c2.16,0,4.32,0,4.32-2.521v-7.2c0-2.521-2.16-2.521-4.32-2.521h-28.083V39.7H128.511z"/>
<path fill="#242A38" stroke="#242A38" stroke-width="2" stroke-miterlimit="10" d="M155.147,29.259
	c0-9.721,8.642-9.721,17.282-9.721h36.003v7.92h-36.724c-2.16,0-4.32,0-4.32,2.521v26.642c0,2.52,2.16,2.52,4.32,2.52h36.724v7.922
	H172.43c-8.641,0-17.282,0-17.282-9.721V29.259z"/>
<path fill="#242A38" stroke="#242A38" stroke-width="2" stroke-miterlimit="10" d="M215.627,19.538h61.205v7.92h-24.481v39.604
	h-12.241V27.458h-24.482V19.538z"/>
<path fill="#242A38" d="M21.873,78.457h4.917c0.3,0,0.6,0,0.6-0.359v-0.6c0-0.359-0.3-0.359-0.6-0.359h-2.519
	c-1.199,0-2.398,0-2.398-1.38v-0.54c0-1.379,1.199-1.379,2.398-1.379h4.558v1.139h-4.438c-0.3,0-0.6,0-0.6,0.36v0.3
	c0,0.359,0.3,0.359,0.6,0.359h2.519c1.199,0,2.398,0,2.398,1.38v0.839c0,1.38-1.199,1.38-2.398,1.38h-5.037V78.457z"/>
<path fill="#242A38" d="M30.752,71.682h1.919v2.158h2.398v1.139h-2.398v3.119c0,0.359,0.3,0.359,0.6,0.359h1.799v1.14h-1.919
	c-1.199,0-2.398,0-2.398-1.38V71.682z"/>
<path fill="#242A38" d="M36.512,73.84h1.919v4.258c0,0.359,0.3,0.359,0.6,0.359h2.398c0.3,0,0.6,0,0.6-0.359V73.84h1.919v4.377
	c0,1.38-1.199,1.38-2.398,1.38h-2.639c-1.199,0-2.398,0-2.398-1.38V73.84z"/>
<path fill="#242A38" d="M45.392,75.219c0-1.379,1.199-1.379,2.398-1.379h3.118v-2.158h1.919v7.915h-5.037
	c-1.199,0-2.398,0-2.398-1.38V75.219z M47.911,78.457h2.998v-3.479h-2.998c-0.3,0-0.6,0-0.6,0.36v2.759
	C47.311,78.457,47.611,78.457,47.911,78.457z"/>
<path fill="#242A38" d="M54.272,75.219c0-1.379,1.199-1.379,2.398-1.379h2.639c1.199,0,2.398,0,2.398,1.379v1.92h-5.517v0.959
	c0,0.359,0.3,0.359,0.6,0.359h4.677v1.14H56.67c-1.199,0-2.398,0-2.398-1.38V75.219z M59.789,75.998v-0.659
	c0-0.36-0.3-0.36-0.6-0.36h-2.398c-0.3,0-0.6,0-0.6,0.36v0.659H59.789z"/>
<path fill="#242A38" d="M63.152,73.84h5.037c1.199,0,2.398,0,2.398,1.379v4.378h-1.919v-4.258c0-0.36-0.3-0.36-0.6-0.36h-2.998
	v4.618h-1.919V73.84z"/>
<path fill="#242A38" d="M72.032,71.682h1.919v2.158h2.398v1.139h-2.398v3.119c0,0.359,0.3,0.359,0.6,0.359h1.799v1.14H74.43
	c-1.199,0-2.398,0-2.398-1.38V71.682z"/>
<path fill="#242A38" d="M77.792,75.998h5.037v1.439h-5.037V75.998z"/>
<path fill="#242A38" d="M84.271,75.219c0-1.379,1.199-1.379,2.398-1.379h1.919v1.139H86.79c-0.3,0-0.6,0-0.6,0.36v4.258h-1.919
	V75.219z"/>
<path fill="#242A38" d="M90.031,73.84h1.919v4.258c0,0.359,0.3,0.359,0.6,0.359h2.398c0.3,0,0.6,0,0.6-0.359V73.84h1.919v4.377
	c0,1.38-1.2,1.38-2.399,1.38H92.43c-1.199,0-2.398,0-2.398-1.38V73.84z"/>
<path fill="#242A38" d="M98.911,73.84h5.037c1.199,0,2.399,0,2.399,1.379v4.378h-1.919v-4.258c0-0.36-0.3-0.36-0.6-0.36h-2.998
	v4.618h-1.919V73.84z"/>
<path fill="#242A38" d="M112.591,75.219c0-1.379,1.199-1.379,2.398-1.379h4.558v1.139h-4.438c-0.3,0-0.6,0-0.6,0.36v2.759
	c0,0.359,0.3,0.359,0.6,0.359h4.438v1.14h-4.558c-1.199,0-2.398,0-2.398-1.38V75.219z"/>
<path fill="#242A38" d="M120.991,75.219c0-1.379,1.199-1.379,2.398-1.379h2.639c1.199,0,2.398,0,2.398,1.379v2.998
	c0,1.38-1.199,1.38-2.398,1.38h-2.639c-1.199,0-2.398,0-2.398-1.38V75.219z M123.509,78.457h2.398c0.3,0,0.6,0,0.6-0.359v-2.759
	c0-0.36-0.3-0.36-0.6-0.36h-2.398c-0.3,0-0.6,0-0.6,0.36v2.759C122.91,78.457,123.209,78.457,123.509,78.457z"/>
<path fill="#242A38" d="M129.871,73.84h7.676c1.199,0,2.398,0,2.398,1.379v4.378h-1.919v-4.258c0-0.36-0.3-0.36-0.6-0.36h-1.559
	v4.618h-1.919v-4.258c0-0.36-0.3-0.36-0.6-0.36h-1.559v4.618h-1.919V73.84z"/>
<path fill="#242A38" d="M141.391,73.84h5.038c1.199,0,2.398,0,2.398,1.379v2.998c0,1.38-1.199,1.38-2.398,1.38h-3.119v2.698h-1.919
	V73.84z M146.308,78.457c0.3,0,0.6,0,0.6-0.359v-2.759c0-0.36-0.3-0.36-0.6-0.36h-2.999v3.479H146.308z"/>
<path fill="#242A38" d="M150.271,73.84h1.918v4.258c0,0.359,0.301,0.359,0.6,0.359h2.398c0.301,0,0.6,0,0.6-0.359V73.84h1.92v4.377
	c0,1.38-1.199,1.38-2.398,1.38h-2.639c-1.199,0-2.399,0-2.399-1.38V73.84z"/>
<path fill="#242A38" d="M159.15,71.682h1.92v2.158h2.398v1.139h-2.398v3.119c0,0.359,0.299,0.359,0.6,0.359h1.799v1.14h-1.92
	c-1.199,0-2.398,0-2.398-1.38V71.682z"/>
<path fill="#242A38" d="M164.91,71.682h1.92v1.139h-1.92V71.682z M164.91,73.84h1.92v5.757h-1.92V73.84z"/>
<path fill="#242A38" d="M168.271,73.84h5.037c1.199,0,2.398,0,2.398,1.379v4.378h-1.92v-4.258c0-0.36-0.299-0.36-0.6-0.36h-2.998
	v4.618h-1.918V73.84z"/>
<path fill="#242A38" d="M177.15,75.219c0-1.379,1.199-1.379,2.398-1.379h5.037v7.256c0,1.199-1.199,1.199-2.398,1.199h-4.797v-1.139
	h4.678c0.299,0,0.6,0,0.6-0.301v-1.259h-3.119c-1.199,0-2.398,0-2.398-1.38V75.219z M179.67,78.457h2.998v-3.479h-2.998
	c-0.301,0-0.6,0-0.6,0.36v2.759C179.07,78.457,179.369,78.457,179.67,78.457z"/>
<path fill="#242A38" d="M190.83,75.998h2.578V73.84h2.039v2.158h2.58v1.439h-2.58v2.159h-2.039v-2.159h-2.578V75.998z"/>
<path fill="#242A38" d="M204.27,71.682h1.92v2.158h2.398v1.139h-2.398v3.119c0,0.359,0.299,0.359,0.6,0.359h1.799v1.14h-1.92
	c-1.199,0-2.398,0-2.398-1.38V71.682z"/>
<path fill="#242A38" d="M210.029,75.219c0-1.379,1.199-1.379,2.398-1.379h2.639c1.199,0,2.398,0,2.398,1.379v1.92h-5.516v0.959
	c0,0.359,0.299,0.359,0.6,0.359h4.678v1.14h-4.799c-1.199,0-2.398,0-2.398-1.38V75.219z M215.547,75.998v-0.659
	c0-0.36-0.301-0.36-0.6-0.36h-2.398c-0.301,0-0.6,0-0.6,0.36v0.659H215.547z"/>
<path fill="#242A38" d="M218.91,75.219c0-1.379,1.199-1.379,2.398-1.379h4.557v1.139h-4.438c-0.299,0-0.6,0-0.6,0.36v2.759
	c0,0.359,0.301,0.359,0.6,0.359h4.438v1.14h-4.557c-1.199,0-2.398,0-2.398-1.38V75.219z"/>
<path fill="#242A38" d="M227.311,71.682h1.918v2.158h3.119c1.199,0,2.398,0,2.398,1.379v4.378h-1.92v-4.258
	c0-0.36-0.299-0.36-0.6-0.36h-2.998v4.618h-1.918V71.682z"/>
<path fill="#242A38" d="M236.189,73.84h5.037c1.199,0,2.398,0,2.398,1.379v4.378h-1.918v-4.258c0-0.36-0.301-0.36-0.6-0.36h-2.998
	v4.618h-1.92V73.84z"/>
<path fill="#242A38" d="M245.07,75.219c0-1.379,1.199-1.379,2.398-1.379h2.639c1.199,0,2.398,0,2.398,1.379v2.998
	c0,1.38-1.199,1.38-2.398,1.38h-2.639c-1.199,0-2.398,0-2.398-1.38V75.219z M247.588,78.457h2.398c0.301,0,0.6,0,0.6-0.359v-2.759
	c0-0.36-0.299-0.36-0.6-0.36h-2.398c-0.299,0-0.6,0-0.6,0.36v2.759C246.988,78.457,247.289,78.457,247.588,78.457z"/>
<path fill="#242A38" d="M253.949,71.682h1.92v7.915h-1.92V71.682z"/>
<path fill="#242A38" d="M257.311,75.219c0-1.379,1.199-1.379,2.398-1.379h5.037v7.256c0,1.199-1.199,1.199-2.398,1.199h-4.799
	v-1.139h4.678c0.301,0,0.6,0,0.6-0.301v-1.259h-3.117c-1.199,0-2.398,0-2.398-1.38V75.219z M259.828,78.457h2.998v-3.479h-2.998
	c-0.299,0-0.6,0-0.6,0.36v2.759C259.229,78.457,259.529,78.457,259.828,78.457z"/>
<path fill="#242A38" d="M267.748,73.84l2.039,4.078l2.039-4.078h2.039l-3.598,7.195c-0.359,0.721-0.66,1.26-1.799,1.26h-2.039
	v-1.139h1.199c0.539,0,0.6-0.121,0.779-0.48l0.359-0.719l-3.057-6.117H267.748z"/>
<path fill="none" stroke="#242A38" stroke-width="9.9" stroke-miterlimit="10" d="M12.378,91.184h266.991h-0.143
	c6.213,0,11.238-5.182,11.238-11.588V20.138c0-6.213-5.182-11.238-11.588-11.238h0.492H20.803c-6.212,0-11.238,5.182-11.238,11.588
	v31.37c0,6.213,5.183,11.238,11.588,11.238"/>
<circle fill="#242A38" cx="12.378" cy="91.184" r="4.906"/>
</svg>
